PathFileType	4	(X/Y/Z)	Kaydara	
DataRate	CameraRate	NumFrames	NumMarkers	Units	OrigDataRate	OrigDataStartFrame	OrigNumFrames	
240.00	240.00	4	72	mm	240.00	135	359	
Frame#	Time	Hips			RightUpLeg			RightLeg			RightFoot			RightFoot_End			LeftUpLeg			LeftLeg			LeftFoot			LeftFoot_End			Spine			Spine1			Spine2			Spine3			Neck			Head			Head_End			RightShoulder			RightArm			RightForeArm			RightHand			RightHandThumb1			RightHandThumb2			RightHandThumb3			RightHandThumb3_End			RightInHandIndex			RightHandIndex1			RightHandIndex2			RightHandIndex3			RightHandIndex3_End			RightInHandMiddle			RightHandMiddle1			RightHandMiddle2			RightHandMiddle3			RightHandMiddle3_End			RightInHandRing			RightHandRing1			RightHandRing2			RightHandRing3			RightHandRing3_End			RightInHandPinky			RightHandPinky1			RightHandPinky2			RightHandPinky3			RightHandPinky3_End			LeftShoulder			LeftArm			LeftForeArm			LeftHand			LeftHandThumb1			LeftHandThumb2			LeftHandThumb3			LeftHandThumb3_End			LeftInHandIndex			LeftHandIndex1			LeftHandIndex2			LeftHandIndex3			LeftHandIndex3_End			LeftInHandMiddle			LeftHandMiddle1			LeftHandMiddle2			LeftHandMiddle3			LeftHandMiddle3_End			LeftInHandRing			LeftHandRing1			LeftHandRing2			LeftHandRing3			LeftHandRing3_End			LeftInHandPinky			LeftHandPinky1			LeftHandPinky2			LeftHandPinky3			LeftHandPinky3_End			
		X1	Y1	Z1	X2	Y2	Z2	X3	Y3	Z3	X4	Y4	Z4	X5	Y5	Z5	X6	Y6	Z6	X7	Y7	Z7	X8	Y8	Z8	X9	Y9	Z9	X10	Y10	Z10	X11	Y11	Z11	X12	Y12	Z12	X13	Y13	Z13	X14	Y14	Z14	X15	Y15	Z15	X16	Y16	Z16	X17	Y17	Z17	X18	Y18	Z18	X19	Y19	Z19	X20	Y20	Z20	X21	Y21	Z21	X22	Y22	Z22	X23	Y23	Z23	X24	Y24	Z24	X25	Y25	Z25	X26	Y26	Z26	X27	Y27	Z27	X28	Y28	Z28	X29	Y29	Z29	X30	Y30	Z30	X31	Y31	Z31	X32	Y32	Z32	X33	Y33	Z33	X34	Y34	Z34	X35	Y35	Z35	X36	Y36	Z36	X37	Y37	Z37	X38	Y38	Z38	X39	Y39	Z39	X40	Y40	Z40	X41	Y41	Z41	X42	Y42	Z42	X43	Y43	Z43	X44	Y44	Z44	X45	Y45	Z45	X46	Y46	Z46	X47	Y47	Z47	X48	Y48	Z48	X49	Y49	Z49	X50	Y50	Z50	X51	Y51	Z51	X52	Y52	Z52	X53	Y53	Z53	X54	Y54	Z54	X55	Y55	Z55	X56	Y56	Z56	X57	Y57	Z57	X58	Y58	Z58	X59	Y59	Z59	X60	Y60	Z60	X61	Y61	Z61	X62	Y62	Z62	X63	Y63	Z63	X64	Y64	Z64	X65	Y65	Z65	X66	Y66	Z66	X67	Y67	Z67	X68	Y68	Z68	X69	Y69	Z69	X70	Y70	Z70	X71	Y71	Z71	X72	Y72	Z72	

135	0.558	5198.941	914.58397	126.699	5254.546896842617	897.1916929312322	53.380930315701455	5160.526954483919	500.36472539659275	-42.48315974098519	5141.55262988918	108.90624926261727	-118.15038740160593	4990.016329335901	32.2667926490808	-30.392425190817427	5157.647372654288	905.7936939598268	211.34992509204406	5066.85712317789	503.8424607817418	286.17621616011826	4992.699505827588	79.59437978610717	376.30591355780126	4871.125261518172	-2.756866736185677	253.92419682966636	5132.258871914722	1032.1133982604842	79.41646081490437	5070.704175082651	1088.0905354739025	29.23782439637738	5003.917595477101	1139.3659824483107	-26.870702268002578	4936.65999471644	1177.0966823839108	-85.94969430173617	4863.55526338274	1217.834123122998	-147.34583338356708	4795.222393459695	1255.2860494433885	-200.5968038628453	4654.9212645497555	1331.064943552597	-207.4842339630954	4908.084546503256	1204.2895908063974	-150.9984880246474	4966.58330655001	1183.6202983423875	-261.13804754377935	5024.856328880325	931.3742558268608	-275.81515141218944	5027.013855757499	796.1885207214424	-451.97679404789005	5028.726401008888	802.5072302739093	-479.70396784006283	5008.433251527883	805.977119496305	-502.9123277337328	4994.759556181055	805.8207903335766	-518.3452682272737	4983.752589841957	803.4895445076183	-530.5870896907537	5032.978812441775	793.3477057843503	-480.3411968883587	5033.1757503047065	781.7011149866257	-517.9192680722715	5020.216165939854	776.3557848100753	-540.2887916740254	5004.581694507254	777.5467928603882	-549.7986604795728	4986.529785675409	781.5775557953033	-554.7038855915359	5033.596387953317	786.886760096743	-476.86979032348944	5034.1262555893345	772.0315085267681	-511.6457051833149	5020.0492662168845	765.3874059179071	-535.4706464208153	5001.217778031992	766.4350162559666	-546.6633781069456	4981.480747577527	770.6561528047152	-551.8941836507955	5034.16369999821	782.5721439725054	-473.49941162278947	5035.528989760937	765.3755118017921	-501.86009967491407	5023.323008856302	758.7792071832323	-521.9731658603891	5005.192289656685	759.3620687101339	-532.4227385022706	4986.650493379057	763.1283573253485	-537.1767108253542	5033.7403421083345	778.3082126735458	-468.20239472087684	5035.188056579097	759.7448713424662	-491.09911409214436	5025.5061832869005	753.2818055061585	-506.06242677751493	5012.326176273698	753.1356649123757	-513.1317290026408	4995.926831935623	756.1432041821686	-517.0249148194558	4867.504947828803	1204.5135606304575	-101.72454899886542	4817.40161180377	1149.4932252904125	2.0285974386802152	4934.461415198215	984.2528159959405	-161.74867542637529	5030.204179632179	862.3574617456466	-345.527897067463	5054.726064807163	865.3880033389086	-366.4883463859148	5093.888324030892	853.1044277901666	-377.8307027956372	5120.842238601825	842.1964900888257	-385.774717813455	5143.039925992097	831.0895263915769	-392.4359632131117	5054.666261019763	858.0086910815642	-369.9586406501717	5095.9254841502325	839.2546543143505	-401.4640962204779	5130.872791601582	822.0380371367978	-415.9897266191906	5153.079923865793	812.4204434799308	-418.4774167270064	5171.7848075408765	805.192485674161	-416.12309669594447	5052.65978578247	852.0618827610874	-368.6333063546326	5091.815710818222	830.5543154401647	-398.6480155814794	5129.559380814641	811.0385186852636	-414.21205873181816	5156.163937508988	799.0854068386888	-417.0759527990733	5176.539301254337	791.0066424322297	-414.4330948802749	5050.132157877202	848.3622142534754	-366.97468247141256	5082.86221820783	825.9433806697048	-392.67306615271514	5115.299235936832	808.2218261158583	-405.8979003651431	5140.716887888492	796.314248584355	-408.47933276692754	5159.758973700048	788.5391200531903	-405.9085871261914	5046.474073046139	844.458866643308	-363.50672083511654	5074.060136910781	821.5617691589837	-385.22344155480425	5099.17374667759	806.3585582767872	-395.1689727641222	5117.2971145571455	797.1833676523137	-396.7401478741946	5133.925678379875	790.0140077857296	-394.2834805191481
136	0.563	5198.941	914.58397	126.699	5254.551675762045	897.1599152063842	53.39772080573222	5160.463889830677	500.32661978032013	-42.377471833077145	5141.532187680341	108.85634725033302	-117.99415017355315	4989.997763595643	32.2171419519048	-30.23271535656841	5157.633300896107	905.8241938131478	211.3413573576927	5066.815753816945	503.88830593837037	286.217978621016	4992.609169565154	79.65835896399157	376.3905074775856	4871.030112836357	-2.6817747486135692	254.00610704471347	5132.300108069059	1032.120631304136	79.37897364766732	5070.758749647047	1088.0795617046526	29.16566972087754	5003.988812261038	1139.3436533271533	-26.9716606540257	4936.7555207395835	1177.0924580624994	-86.06613386359726	4863.675823459338	1217.8496135355194	-147.47823852498726	4795.366797182384	1255.3225713425504	-200.7444826963324	4655.12877468809	1331.187037213572	-207.6777050305945	4908.14522023525	1204.2197161704385	-151.09284318039636	4966.333835852254	1183.1583731104442	-260.8596025930275	5024.083534027805	931.5201500514805	-274.79956045946096	5026.0944285015685	796.8814976482337	-448.2673389265326	5027.233145479998	802.9786245562085	-475.26711929961425	5006.897591249645	806.4840741851633	-497.66920015027	4993.271217939517	806.3945742360788	-512.5709428126997	4982.369447305586	804.1550263990125	-524.3958441675455	5031.671047642071	793.9342618379171	-475.95188823982926	5031.7213525772	782.3473200085166	-512.5787109336653	5018.859274011451	777.1252242308702	-534.2559294009992	5003.3437289582425	778.3988116992273	-543.3678798988985	4985.42958536314	782.5019488769182	-547.9656619479185	5032.512238592107	787.5895343476822	-472.594546416656	5033.019981624725	772.8553016596251	-506.50434836700873	5019.0796209266655	766.3609156451458	-529.5919451789006	5000.406119820306	767.515469773848	-540.3132880068707	4980.826881966705	771.8193530293867	-545.2119172830738	5033.239723808143	783.354961269679	-469.32934545108645	5034.719683734658	766.3346807186772	-497.0060520193111	5022.6637394720165	759.8842651170082	-516.4963057980679	5004.7018481598125	760.5784583535324	-526.5017332192583	4986.31620563959	764.4264240257568	-530.9483740238167	5033.017456185867	779.1858331836903	-464.17861539344887	5034.689058454719	760.840883687833	-486.538931821617	5025.175126898779	754.5178940199576	-501.0374832230515	5012.1413850486415	754.4642079784843	-507.7992534610766	4995.893674250726	757.5505734252691	-511.4296489326522	4867.670811071332	1204.6027810082198	-101.88630699142632	4817.725591528655	1150.229567798056	1.8152581712936373	4933.905432887699	984.6159538344913	-160.57855088191604	5030.165966060708	862.8011532513403	-342.9124891299246	5054.061834134008	865.5846654352665	-363.6703205188868	5093.001399851548	853.3312238054635	-375.25137057260434	5119.889924478339	842.4826044674467	-383.3675843596415	5142.109829694744	831.4578847828689	-390.1774938522931	5054.245555529069	858.3009444936773	-367.09663779576897	5095.34198154801	839.540624077392	-398.4500692138753	5130.285857246647	822.421965161701	-413.1198749655304	5152.490726832779	812.8907038363487	-415.8413386875974	5171.193650255617	805.7513577188847	-413.77773979329	5052.493920975281	852.4634784513911	-365.8047205614873	5091.628870752168	831.0088962300907	-395.6891540859945	5129.403087024477	811.6145671493625	-411.41573577136904	5156.021368934792	799.7726065213224	-414.5641719379738	5176.402587504877	791.794199671681	-412.2406323047339	5050.149930765576	848.8404308372275	-364.17105584149283	5083.018960945771	826.5332844956099	-389.76695253005005	5115.517690980955	808.9324245853645	-403.1390191496601	5140.967215826391	797.1399332082817	-405.99786970440545	5160.023636749377	789.4628964444425	-403.728764089725	5046.712638607402	845.031796249895	-360.7561908838035	5074.560345757205	822.2928758615051	-382.40310869450275	5099.777512040454	807.2089571496953	-392.47568301932347	5117.950317192733	798.1286647669885	-394.25363162648114	5134.606651786356	791.0525023506583	-392.0667142176787
137	0.567	5198.941	914.58397	126.699	5254.554902911319	897.1270878655358	53.41380830126211	5160.397410927304	500.28807800507127	-42.273160055334024	5141.511370633702	108.80594229574778	-117.839248928057	4989.978816606732	32.16690271981067	-30.07442870656499	5157.620812222619	905.8557497600633	211.33345432355733	5066.7748515654275	503.9352985220088	286.2595256669988	4992.5197978021015	79.72329709963094	376.47417983207146	4870.9359248786295	-2.6056060064957687	254.0870241511724	5132.341273824988	1032.1278852789603	79.34169537688945	5070.81298904929	1088.0690720584496	29.09459624353629	5004.059248313486	1139.3222252864828	-27.070596172695467	4936.849614172672	1177.0892739152266	-86.17967599167073	4863.794376384445	1217.8663698524074	-147.60686725445115	4795.508800610495	1255.360634515064	-200.88765268226737	4655.335918443418	1331.3136953264122	-207.86911229372132	4908.203728814193	1204.1510566805684	-151.18363183058835	4966.079853914509	1182.7008517468967	-260.5786086934487	5023.322733874508	931.6722208487088	-273.78540869979975	5025.18651359972	797.5891676410243	-444.57830029350623	5025.756615515629	803.4726060305165	-470.8465535772982	5005.386309226484	807.0151712743693	-492.4447762477588	4991.8119936817475	806.992595883981	-506.8180440810452	4981.018858906548	804.8439805521908	-518.229182595256	5030.37799074225	794.5410279531603	-471.5818259668668	5030.285938899936	783.0166005226	-507.2610826118655	5017.526307852855	777.9173867649108	-528.2505612828671	5002.1339922796205	779.2726288465293	-536.9674004814996	4984.36200583295	783.4468987642254	-541.260041748177	5031.4411272255775	788.3096209784239	-468.34133667637303	5031.930012672673	773.697635342025	-501.390124801233	5018.131441287278	767.3521868396374	-523.745717284043	4999.6210075786485	768.6123796695358	-533.9992297916788	4980.20431381398	772.9975591574142	-538.5682855190507	5032.327473712316	784.152988557377	-465.18317622632867	5033.923825610756	767.3083877637317	-492.1820506163425	5022.022174249983	761.0027767046038	-511.0545048629615	5004.233882805001	761.8068274870514	-520.6194099033953	4986.008800791415	765.73500437473	-524.7612566034901	5032.304841554534	780.0760162303462	-460.1808743034796	5034.200938204389	761.9472713129032	-482.01170615248793	5024.857972112545	755.7628597005375	-496.05004285760225	5011.9737901141	755.8002483389057	-502.50718119395884	4995.881509473501	758.9639661615414	-505.8771822878063	4867.835220772343	1204.6931617180057	-102.04467089057256	4818.048520706202	1150.9672848890718	1.6030027740541741	4933.357206946706	984.984357962286	-159.40452613109727	5030.1231699979935	863.2518417589763	-340.31642142493007	5053.394112195191	865.7958843070749	-360.86645856265585	5092.10518230489	853.5745957137307	-372.68320036955663	5118.9237312573905	842.785816740787	-380.97060908355616	5141.161565013047	831.8430199054934	-387.92927543058397	5053.820035454895	858.6056675359862	-364.2522922169754	5094.748988623304	839.8424650789281	-395.45484252313014	5129.683343525385	822.8220561344768	-410.26922999207943	5151.881415523413	813.3766255038321	-413.22353250930774	5170.57811969225	806.3250151637893	-411.44908002321233	5052.321786845446	852.8749220852067	-362.996689350028	5091.430414728298	831.475225313852	-392.75352932644824	5129.228352592357	812.2023226758929	-408.64347107078385	5155.854801984687	800.4707355133534	-412.0755029467139	5176.237173196019	792.5916439365506	-410.06964676161516	5050.160550171148	849.3265723141529	-361.39001285442544	5083.163062111741	827.1311936878161	-386.8876206733664	5115.717379878425	809.6506218125237	-400.4080178519651	5141.193323196727	797.9722695400324	-403.5435766027778	5160.2596136603615	790.3922512526921	-401.57467001553783	5046.942975717568	845.61020996055	-358.03046119107813	5075.046709812657	823.0280904325193	-379.61283134297963	5100.362277218147	808.0625595383692	-389.8139058745324	5118.580419712321	799.0761946511033	-391.7983896088383	5135.260499409623	792.0921178031953	-389.8801064912622
138	0.571	5198.941	914.58397	126.699	5254.55651178864	897.0931910303398	53.429143768322085	5160.327558028581	500.24909439915353	-42.17043279479865	5141.49022357735	108.7550465547193	-117.68597748340947	4989.959536287176	32.11607881051223	-29.917860931687688	5157.609992109702	905.8883914734679	211.3262632312102	5066.734500025058	503.98344546038015	286.3007803287681	4992.4315116658145	79.78916447447915	376.55671014800123	4870.842835071139	-2.5284168276545733	254.16672938509146	5132.382287513609	1032.1351172715297	79.30463656581595	5070.866754265625	1088.058970208129	29.02462647755227	5004.128710597082	1139.3015347430628	-27.167482752238822	4936.942042642095	1177.0868734849148	-86.29031105589961	4863.910650296087	1217.8840403182835	-147.7317279656526	4795.6480972742365	1255.3998021079067	-201.02633867720218	4655.54236696355	1331.4444347049898	-208.0585859152834	4908.259855451848	1204.083361084902	-151.27087943692644	4965.821435460981	1182.2479528718202	-260.29532503694554	5022.574858847073	931.830444002569	-272.7736325748789	5024.292228688052	798.3115752866944	-440.9150045040832	5024.299941356075	803.9901041554766	-466.4480845533566	5003.903181512725	807.5716407855562	-487.2458975879553	4990.386006365848	807.6161804902374	-501.0941834709554	4979.705148823665	805.5577139097844	-512.0954045922787	5029.102515392275	795.1686407572204	-467.2370359735519	5028.873073890883	783.7099227596269	-501.97379610097425	5016.221210569428	778.7332806557426	-522.2812097995097	5000.956636854042	780.1692432089148	-530.6063618461704	4983.331355129298	784.4133727195583	-534.5966264274688	5030.385618877263	789.0473258477759	-464.11629299648826	5030.859420799347	774.558958059368	-496.31057659446674	5017.208169278186	768.3616688838578	-517.9407251808003	4998.866115093232	769.7261624921342	-527.7307150995942	4979.616877175039	774.1911426272244	-531.9733075622736	5031.429279561736	784.9662908175446	-461.06707449412204	5033.143996981469	768.2966202177703	-487.3955609578726	5021.401172351468	762.1346838298715	-505.65629986256977	5003.7914525318965	763.0470618002938	-514.7850320898316	4985.731477181611	767.0539300253284	-518.625101268187	5031.60453302371	780.9785299966697	-456.215352928621	5033.725781556781	763.0635523648156	-477.5248106686482	5024.556955853146	757.0161126284165	-491.1083434543378	5011.825739735114	757.143120394674	-497.2642831100419	4995.892789575658	760.3826489599728	-500.3767120181591	4867.99787437743	1204.784312990601	-102.19961858579804	4818.369968921551	1151.7053334023453	1.3917036194630568	4932.817687967669	985.3579941042437	-158.22805096893816	5030.075578543042	863.7098562625869	-337.74398730119646	5052.723353479273	866.022573800858	-358.0808577029565	5091.199956358387	853.8353224997062	-370.1299639372648	5117.94370830322	843.1067351171077	-378.58741578870513	5140.194884339797	832.2453318482467	-385.6948757271443	5053.389850903361	858.9236090566692	-361.43000309959695	5094.146532724969	840.1610364764097	-392.4831046450585	5129.064894482663	823.2389422601053	-407.44247891592784	5151.251337456208	813.8785869286785	-410.6284868540417	5169.937278660322	806.9135504252099	-409.1413083088154	5052.143203900335	853.2967351923478	-360.21380621760864	5091.219865324517	831.9538089439827	-389.8461221466173	5129.034238371342	812.8020131356986	-405.90026852524187	5155.662918907194	801.1797007877252	-409.61472190164585	5176.041418912991	793.3985620616907	-407.92459425014295	5050.163609103987	849.8209994022567	-358.6362795355162	5083.293656756888	827.7373232931767	-384.04026648380983	5115.896991260048	810.3763587908389	-397.71013681299155	5141.393510080076	798.8108723580805	-401.1214869836838	5160.464891001425	791.3264903396829	-399.4510435988755	5047.16440115895	846.1942594441227	-355.3343814339258	5075.5179629778895	823.7673108257926	-376.8579752908766	5100.926352001997	808.918995549472	-387.18907862358077	5119.1854162650925	800.025326057939	-389.37972563534277	5135.884919127361	793.1319357737447	-387.72870998477276
